# xmcd CD database file
#
# Track frame offsets:
#	162
#	24525
#	51822
#	70335
#	86787
#	112551
#	132804
#	161199
#	187815
#	213165
#
# Disc length: 3022 seconds
#
# Revision: 0
# Processed by: cddbd v1.5PL3 Copyright (c) Steve Scherf et al.
# Submitted via: CDex 1.50beta10
#
DISCID=7e0bcc0a
DTITLE=A. C. Reed and Maurice John Vaughn - I Got Money
DYEAR=1985
DGENRE=Blues
TTITLE0=Boogie All Night
TTITLE1=Help Me Spend My Gold
TTITLE2=My Buddy Buddy Friends
TTITLE3=This Little Voice
TTITLE4=Big Boss Man
TTITLE5=Mojo Hand
TTITLE6=Computer Took My Job
TTITLE7=Everything I Do Got To Be Funky
TTITLE8=I Got Money
TTITLE9=Mojo On Me
EXTD=YEAR: 1985
EXTT0=
EXTT1=
EXTT2=
EXTT3=
EXTT4=
EXTT5=
EXTT6=
EXTT7=
EXTT8=
EXTT9=
PLAYORDER=
